# AST/ASF file generated using VICON BodyLanguage
# -----------------------------------------------
:version 1.10
:name VICON
:units
  mass 1.0
  length 0.45
  angle deg
:documentation
   .ast/.asf automatically generated from VICON data using
   VICON BodyBuilder and BodyLanguage model FoxedUp or BRILLIANT.MOD
:root
   order TX TY TZ RX RY RZ
   axis XYZ
   position 0 0 0  
   orientation 0 0 0 
:bonedata
  begin
     id 1 
     name lhipjoint
     direction 0.558404 -0.748506 0.357664 
     length 2.4234 
     axis 0 0 0  XYZ
  end
  begin
     id 2 
     name lfemur
     direction 0.34202 -0.939693 0  
     length 7.14567  
     axis 0 0 20  XYZ
    dof rx ry rz
    limits (-160.0 20.0)
           (-70.0 70.0)
           (-60.0 70.0)
  end
  begin
     id 3 
     name ltibia
     direction 0.34202 -0.939693 0   
     length 8.13956   
     axis 0 0 20   XYZ
    dof rx
    limits (-10.0 170.0)
  end
  begin
     id 4 
     name lfoot
     direction 0.0791314 -0.217412 0.972867   
     length 2.00134   
     axis -90 7.62852e-016 20   XYZ
    dof rx rz
    limits (-45.0 90.0)
           (-70.0 20.0)
  end
  begin
     id 5 
     name ltoes
     direction 1.53547e-011 -4.21922e-011 1   
     length 1.00735   
     axis -90 7.62852e-016 20   XYZ
    dof rx
    limits (-90.0 20.0)
  end
  begin
     id 6 
     name rhipjoint
     direction -0.496392 -0.78327 0.374276   
     length 2.31584  
     axis 0 0 0  XYZ 
  end
  begin
     id 7 
     name rfemur
     direction -0.34202 -0.939693 0   
     length 7.47417   
     axis 0 0 -20   XYZ
    dof rx ry rz
    limits (-160.0 20.0)
           (-70.0 70.0)
           (-70.0 60.0)
  end
  begin
     id 8 
     name rtibia
     direction -0.34202 -0.939693 0   
     length 7.69071   
     axis 0 0 -20   XYZ
    dof rx
    limits (-10.0 170.0)
 end
 begin
     id 9 
     name rfoot
     direction -0.103069 -0.28318 0.953512   
     length 2.16135  
     axis -90 -7.62852e-016 -20   XYZ
    dof rx rz
    limits (-45.0 90.0)
           (-20.0 70.0)
  end
  begin
     id 10 
     name rtoes
     direction -1.53581e-011 -4.21904e-011 1   
     length 1.07867   
     axis -90 -7.62852e-016 -20   XYZ
    dof rx
    limits (-90.0 20.0)
  end
  begin
     id 11 
     name lowerback
     direction -0.0258961 0.994776 -0.0987407   
     length 2.19412   
     axis 0 0 0   XYZ
    dof rx ry rz
    limits (-20.0 45.0)
           (-30.0 30.0)
           (-30.0 30.0)
  end
  begin
     id 12 
     name upperback
     direction 0.0402454 0.999185 0.00320666   
     length 2.18445   
     axis 0 0 0   XYZ
    dof rx ry rz
    limits (-20.0 45.0)
           (-30.0 30.0)
           (-30.0 30.0)
  end
  begin
     id 13 
     name thorax
     direction 0.0519376 0.997415 0.0496558   
     length 2.21487   
     axis 0 0 0   XYZ
    dof rx ry rz
    limits (-20.0 45.0)
           (-30.0 30.0)
           (-30.0 30.0)
  end
  begin
     id 14 
     name lowerneck
     direction -0.0921276 0.983211 0.157506   
     length 1.61201   
     axis 0 0 0   XYZ
    dof rx ry rz
    limits (-20.0 45.0)
           (-30.0 30.0)
           (-30.0 30.0)
  end
  begin
     id 15 
     name upperneck
     direction 0.0820814 0.98162 -0.172292   
     length 1.65275   
     axis 0 0 0   XYZ
    dof rx ry rz
    limits (-20.0 45.0)
           (-30.0 30.0)
           (-30.0 30.0)
  end
  begin
     id 16
     name head
     direction 0.0336554 0.996413 -0.0776455  
     length 1.66415  
     axis 0 0 0   XYZ
    dof rx ry rz
    limits (-20.0 45.0)
           (-30.0 30.0)
           (-30.0 30.0)
  end
  begin
     id 17 
     name lclavicle
     direction 0.94696 0.284418 -0.149576  
     length 3.41447  
     axis 0 0 0   XYZ
    dof ry rz
    limits (-20.0 10.0)
           (0.0 20.0)
  end
  begin
     id 18 
     name lhumerus
     direction 1 -0.000130264 -9.81312e-005   
     length 5.19964   
     axis 180 -30 -90   XYZ
    dof rx ry rz
    limits (-60.0 90.0)
           (-90.0 90.0)
           (-90.0 90.0)
  end
  begin
     id 19
     name lradius
     direction 1 -4.48961e-011 1.43854e-026   
     length 3.32189   
     axis 180 -30 -90   XYZ
    dof rx
    limits (-10.0 170.0)
  end
  begin
     id 20
     name lwrist
     direction 1 -4.48958e-011 3.1502e-026   
     length 1.66095   
     axis -1.97692e-014 90 90   XYZ
    dof ry
    limits (-180.0 0.0)
 end
  begin
     id 21 
     name lhand
     direction 1 -4.48927e-011 6.3004e-026   
     length 0.645616   
     axis -4.02019e-014 90 90   XYZ
    dof rx rz
    limits (-90.0 90.0)
           (-45.0 45.0)
  end
  begin
     id 22 
     name lfingers
     direction 1 -4.4904e-011 1.26008e-025   
     length 0.520512   
     axis -8.04039e-014 90 90   XYZ
    dof rx
    limits (0.0 90.0)
  end
  begin
     id 23
     name lthumb
     direction 0.707107 -6.34947e-011 0.707107   
     length 0.747354   
     axis -90 45 2.85299e-015   XYZ
    dof rx rz
    limits (-45.0 45.0)
           (-45.0 45.0)
  end
  begin
     id 24 
     name rclavicle
     direction -0.909391 0.383475 -0.161107   
     length 3.25176  
     axis 0 0 0   XYZ 
    dof ry rz
    limits (-10.0 20.0)
           (-20.0 0.0)
  end
  begin
     id 25 
     name rhumerus
     direction -1 -4.48965e-011 -1.81384e-027  
     length 5.6595   
     axis 180 30 90   XYZ
    dof rx ry rz
    limits (-90.0 60.0)
           (-90.0 90.0)
           (-90.0 90.0)
  end
  begin
     id 26 
     name rradius
     direction -1 -4.48996e-011 -8.09397e-027   
     length 3.37604   
     axis 180 30 90   XYZ
    dof rx
    limits (-10.0 170.0)
  end
  begin
     id 27 
     name rwrist
     direction -1 -4.48927e-011 -1.56669e-026   
     length 1.68802   
     axis 1.21142e-014 -90 -90   XYZ
    dof ry
    limits (-180.0 0.0)
  end
  begin
     id 28
     name rhand
     direction -1 -4.48912e-011 -3.13339e-026   
     length 0.824702   
     axis 1.99937e-014 -90 -90   XYZ
    dof rx rz
    limits (-90.0 90.0)
           (-45.0 45.0)
  end
  begin
     id 29
     name rfingers
     direction -1 -4.49011e-011 -6.26677e-026   
     length 0.664896   
     axis 3.99874e-014 -90 -90   XYZ
    dof rx
    limits (0.0 90.0)
  end
  begin
     id 30
     name rthumb
     direction -0.707107 -6.34931e-011 0.707107   
     length 0.954662   
     axis -90 -45 -2.85299e-015   XYZ
    dof rx rz
    limits (-45.0 45.0)
           (-45.0 45.0)
  end
:hierarchy
  begin
    root lhipjoint rhipjoint lowerback
    lhipjoint lfemur
    lfemur ltibia
    ltibia lfoot
    lfoot ltoes
    rhipjoint rfemur
    rfemur rtibia
    rtibia rfoot
    rfoot rtoes
    lowerback upperback
    upperback thorax
    thorax lowerneck lclavicle rclavicle
    lowerneck upperneck
    upperneck head
    lclavicle lhumerus
    lhumerus lradius
    lradius lwrist
    lwrist lhand lthumb
    lhand lfingers
    rclavicle rhumerus
    rhumerus rradius
    rradius rwrist
    rwrist rhand rthumb
    rhand rfingers
  end

#!OML:ASF F:\VICON\USERDATA\INSTALL\rory3\rory3.ASF
:FULLY-SPECIFIED
:DEGREES
187
root 10.8522 17.7766 -29.4321 16.5393 -32.7201 0.629883
lowerback 9.97871 0.130634 -7.70707
upperback -0.215144 -0.563647 2.95042
thorax -5.74774 -0.00774258 7.59991
lowerneck -14.951 -3.09183 -11.4642
upperneck 22.2872 -4.28929 11.2609
head 10.0308 -1.74798 5.38196
rclavicle -1.20265e-014 -3.18055e-015
rhumerus -31.2673 -11.4122 -74.3809
rradius 44.135
rwrist -15.4399
rhand -12.377 19.889
rfingers 7.12502
rthumb 13.6937 -9.64043
lclavicle -1.20265e-014 -3.18055e-015
lhumerus -21.4017 20.7861 81.1512
lradius 25.1187
lwrist -10.2754
lhand -7.07189 31.2029
lfingers 7.12502
lthumb 18.8017 60.3142
rfemur -30.7822 0.61348 12.011
rtibia 69.3149
rfoot -8.06028 -12.1463
rtoes 22.5383
lfemur -27.5596 -7.61092 -22.2968
ltibia 44.2491
lfoot -21.0391 0.56111
ltoes -20.1404
188
root 10.8259 17.7817 -29.2508 16.1904 -33.6349 0.361974
lowerback 10.0942 0.379432 -7.5426
upperback 0.0375617 -0.219407 2.91812
thorax -5.60798 0.140597 7.41731
lowerneck -14.7476 -3.03257 -11.5998
upperneck 22.2279 -4.20326 11.3182
head 9.96288 -1.71936 5.43542
rclavicle -6.76862e-014 -5.56597e-015
rhumerus -31.4314 -11.0108 -74.4342
rradius 44.3437
rwrist -16.1274
rhand -12.4608 19.548
rfingers 7.12502
rthumb 13.6129 -9.98687
lclavicle -6.76862e-014 -5.56597e-015
lhumerus -21.173 20.8712 81.2414
lradius 25.421
lwrist -10.1868
lhand -7.49222 30.5508
lfingers 7.12502
lthumb 18.3974 59.7008
rfemur -30.9502 1.07926 12.011
rtibia 69.4494
rfoot -9.07951 -11.3552
rtoes 21.5186
lfemur -26.3395 -7.94468 -22.6325
ltibia 44.1854
lfoot -21.0418 1.50112
ltoes -22.0648
189
root 10.801 17.7846 -29.1739 16.7642 -32.8669 0.627893
lowerback 10.1258 0.18429 -7.69367
upperback -0.271799 -0.5015 2.96405
thorax -5.9034 0.0324802 7.60279
lowerneck -13.7926 -3.07628 -12.0777
upperneck 21.4568 -4.31775 11.8409
head 9.54538 -1.7799 5.6655
rclavicle 3.57812e-015 4.13472e-014
rhumerus -31.5793 -11.4035 -74.2668
rradius 44.2121
rwrist -16.1611
rhand -12.254 19.7112
rfingers 7.12502
rthumb 13.8122 -9.8102
lclavicle 3.57812e-015 4.13472e-014
lhumerus -20.6814 20.4248 81.4805
lradius 25.6147
lwrist -9.78478
lhand -7.11389 31.2765
lfingers 7.12502
lthumb 18.7613 60.3917
rfemur -32.5938 0.0845735 12.3814
rtibia 69.7055
rfoot -9.57473 -11.2876
rtoes 20.7684
lfemur -27.0478 -7.78491 -22.5774
ltibia 44.1926
lfoot -20.6124 -0.676243
ltoes -16.5435
190
root 10.7748 17.7783 -29.0759 17.1604 -32.8681 0.715128
lowerback 10.0443 0.0623034 -7.97585
upperback -0.246565 -0.691757 2.95295
thorax -5.79236 -0.0593486 7.77964
lowerneck -13.6968 -3.03903 -12.0541
upperneck 20.8969 -4.28526 12.0623
head 9.33198 -1.73946 5.72549
rclavicle -3.83654e-014 1.15295e-014
rhumerus -31.302 -11.2164 -74.5833
rradius 44.1487
rwrist -16.0696
rhand -12.3187 19.889
rfingers 7.12502
rthumb 13.7499 -9.63667
lclavicle -3.83654e-014 1.15295e-014
lhumerus -19.8331 20.4372 81.4827
lradius 25.6654
lwrist -9.1557
lhand -5.9456 32.9073
lfingers 7.12502
lthumb 19.8846 61.9101
rfemur -34.056 -0.229211 12.634
rtibia 69.8235
rfoot -9.90624 -11.233
rtoes 20.5321
lfemur -27.1539 -7.08519 -22.8205
ltibia 44.2001
lfoot -20.5226 -1.33446
ltoes -16.3765
191
root 10.7458 17.7826 -28.9554 17.3685 -33.1125 0.79471
lowerback 9.95646 0.0196434 -8.1631
upperback -0.22186 -0.764994 2.92438
thorax -5.70073 -0.0959393 7.86474
lowerneck -18.6055 -3.33281 -10.2544
upperneck 25.3352 -4.5374 10.1101
head 11.8588 -1.80827 4.82776
rclavicle 2.50469e-014 1.43125e-014
rhumerus -31.2916 -10.8277 -74.7844
rradius 44.22
rwrist -16.0382
rhand -12.223 19.9254
rfingers 7.12502
rthumb 13.8421 -9.59406
lclavicle 2.50469e-014 1.43125e-014
lhumerus -19.3174 20.3747 81.5108
lradius 25.9193
lwrist -8.72715
lhand -4.97943 34.0277
lfingers 7.12502
lthumb 20.8132 62.9314
rfemur -35.2246 -0.339263 12.7751
rtibia 69.8207
rfoot -10.3663 -11.1101
rtoes 20.3827
lfemur -26.9832 -6.88074 -23.1245
ltibia 44.2071
lfoot -20.3831 -1.57728
ltoes -15.1423
192
root 10.7151 17.7894 -28.8246 17.5077 -33.2037 0.871718
lowerback 9.8983 -0.0500574 -8.22184
upperback -0.156122 -0.862693 2.85399
thorax -5.57854 -0.152424 7.83253
lowerneck -13.4947 -2.9928 -12.1572
upperneck 20.6282 -4.24046 12.2507
head 9.2005 -1.71315 5.80727
rclavicle 5.51627e-014 -1.23246e-014
rhumerus -31.2256 -10.7547 -74.9947
rradius 44.172
rwrist -15.8924
rhand -12.1014 19.9207
rfingers 7.12502
rthumb 13.9593 -9.59065
lclavicle 5.51627e-014 -1.23246e-014
lhumerus -18.8609 20.26 81.5106
lradius 26.334
lwrist -8.37326
lhand -5.11524 33.9434
lfingers 7.12502
lthumb 20.6827 62.8613
rfemur -36.1969 -0.636819 12.9539
rtibia 69.6672
rfoot -10.9046 -10.7614
rtoes 19.8281
lfemur -26.6861 -7.05987 -23.3669
ltibia 44.161
lfoot -20.2414 -1.82614
ltoes -12.3164
193
root 10.6837 17.7863 -28.6884 17.6624 -33.4732 0.808293
lowerback 9.85106 -0.033369 -8.27353
upperback -0.0391848 -0.842321 2.8156
thorax -5.43077 -0.153704 7.8139
lowerneck -14.0831 -2.94466 -11.7245
upperneck 20.8356 -4.1635 11.9791
head 9.35796 -1.65313 5.6513
rclavicle -6.06293e-015 -2.78299e-015
rhumerus -31.0634 -10.8299 -75.1259
rradius 44.0035
rwrist -15.8319
rhand -12.1308 19.9195
rfingers 7.12502
rthumb 13.9309 -9.59377
lclavicle -6.06293e-015 -2.78299e-015
lhumerus -18.2758 20.2175 81.5609
lradius 26.4606
lwrist -8.03172
lhand -5.83625 33.2037
lfingers 7.12502
lthumb 19.9898 62.1955
rfemur -37.0745 -0.743551 13.1736
rtibia 69.4316
rfoot -11.5989 -10.0789
rtoes 20.4356
lfemur -26.2575 -7.18857 -23.5826
ltibia 44.1098
lfoot -20.0677 -1.39289
ltoes -13.2986
194
root 10.6532 17.7741 -28.5547 17.8328 -33.8096 0.700213
lowerback 9.85885 0.073453 -8.26084
upperback 0.034133 -0.700101 2.77098
thorax -5.38534 -0.0896164 7.73692
lowerneck -14.4419 -2.97209 -11.5168
upperneck 20.9903 -4.21196 11.9148
head 9.48069 -1.65551 5.59223
rclavicle -3.6477e-014 2.28602e-014
rhumerus -31.0315 -10.9634 -75.155
rradius 43.9034
rwrist -15.9671
rhand -12.1128 19.8725
rfingers 7.12502
rthumb 13.9483 -9.63966
lclavicle -3.6477e-014 2.28602e-014
lhumerus -17.6484 19.7462 81.7294
lradius 26.5641
lwrist -7.65
lhand -6.1228 32.7639
lfingers 7.12502
lthumb 19.7143 61.7842
rfemur -37.9584 -0.717118 13.406
rtibia 69.1847
rfoot -12.2238 -9.47094
rtoes 21.334
lfemur -25.8711 -6.97517 -23.8057
ltibia 44.1058
lfoot -19.9176 -1.03725
ltoes -15.2642
